# xmcd
#
# Track frame offsets:
#	150
#	16040
#	28237
#	41945
#	61082
#	74737
#	96342
#	112605
#	128640
#	142550
#	164190
#
# Disc length: 2408 seconds
#
# Revision: 4
# Processed by: cddbd v1.5.2PL0 Copyright (c) Steve Scherf et al.
# Submitted via: audiograbber 1.83.01
#
DISCID=9209660b
DTITLE=Merle Haggard - His Epic Hits - The First 11
DYEAR=1984
DGENRE=Country
TTITLE0=Reason To Quit
TTITLE1=You Take Me For Granted
TTITLE2=That's The Way Love Goes
TTITLE3=Are The Good Times Really Over (I Wish A Buck Was Still Silver)
TTITLE4=Big City
TTITLE5=Pancho And Lefty
TTITLE6=Someday When Things Are Good
TTITLE7=What Am I Gonna Do (With The Rest Of My Life)
TTITLE8=My Favorite Memory
TTITLE9=Going Where The Lonely Go
TTITLE10=C.C. Waterback
EXTD=
EXTT0=
EXTT1=
EXTT2=
EXTT3=
EXTT4=
EXTT5=
EXTT6=
EXTT7=
EXTT8=
EXTT9=
EXTT10=
PLAYORDER=
